<svg fill='white' t="1696343009337" class="icon" viewBox="0 0 1024 1024" version="1.1" xmlns="http://www.w3.org/2000/svg" p-id="4734" width="200" height="200"><path d="M512 64c100.693333 0 185.941333 73.216 199.381333 171.306667h229.76c21.461333 0 39.125333 16.554667 40.106667 37.632a39.765333 39.765333 0 0 1-36.266667 41.216l-3.84 0.213333h-67.072v448c0 106.666667-86.144 194.090667-194.645333 197.546667l-6.485333 0.085333H351.061333c-108.544 0-197.546667-84.650667-201.045333-191.232l-0.085333-6.4v-448H82.858667a39.936 39.936 0 0 1-40.106667-37.632 39.765333 39.765333 0 0 1 36.266667-41.258667l3.84-0.170666h229.76C326.058667 137.173333 411.264 64 512 64z m281.6 250.368H230.4v448c0 63.317333 50.602667 115.456 114.986667 118.442667l5.674666 0.128h321.877334c64.426667 0 117.504-49.749333 120.533333-112.981334l0.128-5.589333v-448zM512 143.061333c-56.32 0-105.173333 38.272-117.674667 92.245334h235.392C617.173333 181.333333 568.32 143.061333 512 143.061333z m-93.866667 316.245334c20.736 0 38.058667 15.445333 40.021334 35.712l0.213333 3.84v210.773333a39.850667 39.850667 0 0 1-38.314667 39.466667 40.021333 40.021333 0 0 1-41.984-35.669334l-0.170666-3.797333v-210.773333c0-10.538667 4.266667-20.565333 11.776-27.989334a40.576 40.576 0 0 1 28.458666-11.562666z m187.733334 0c20.736 0 38.058667 15.445333 40.064 35.712l0.170666 3.84v210.773333a39.850667 39.850667 0 0 1-38.314666 39.466667 40.021333 40.021333 0 0 1-41.941334-35.669334l-0.213333-3.797333v-210.773333c0-10.538667 4.266667-20.565333 11.776-27.989334a40.576 40.576 0 0 1 28.458667-11.562666z" p-id="4735"></path></svg>